<?xml version="1.0" encoding="UTF-8"?><svg xmlns="http://www.w3.org/2000/svg" xmlns:xlink="http://www.w3.org/1999/xlink" fill-opacity="1" color-rendering="auto" color-interpolation="auto" text-rendering="auto" stroke="black" stroke-linecap="square" width="917" stroke-miterlimit="10" shape-rendering="auto" stroke-opacity="1" fill="black" stroke-dasharray="none" font-weight="normal" stroke-width="1" height="878" font-family="'Dialog'" font-style="normal" stroke-linejoin="miter" font-size="12px" stroke-dashoffset="0" image-rendering="auto">
  <!--Generated by ySVG 2.6-->
  <defs id="genericDefs"/>
  <g>
    <defs id="defs1">
      <linearGradient x1="-1092.7052" gradientUnits="userSpaceOnUse" x2="-1012.7052" y1="330.9946" y2="370.9946" id="linearGradient1" spreadMethod="reflect">
        <stop stop-opacity="1" stop-color="white" offset="0%"/>
        <stop stop-opacity="1" stop-color="white" offset="100%"/>
      </linearGradient>
      <linearGradient x1="-627.9404" gradientUnits="userSpaceOnUse" x2="-547.9404" y1="329.9254" y2="369.9254" id="linearGradient2" spreadMethod="reflect">
        <stop stop-opacity="1" stop-color="white" offset="0%"/>
        <stop stop-opacity="1" stop-color="white" offset="100%"/>
      </linearGradient>
      <clipPath clipPathUnits="userSpaceOnUse" id="clipPath1">
        <path d="M0 0 L917 0 L917 878 L0 878 L0 0 Z"/>
      </clipPath>
      <clipPath clipPathUnits="userSpaceOnUse" id="clipPath2">
        <path d="M-1503 -157 L-356.75 -157 L-356.75 940.5 L-1503 940.5 L-1503 -157 Z"/>
      </clipPath>
      <clipPath clipPathUnits="userSpaceOnUse" id="clipPath3">
        <path d="M-356.1003 301.5924 L-356.1003 -844.6576 L741.3997 -844.6576 L741.3997 301.5924 L-356.1003 301.5924 Z"/>
      </clipPath>
      <clipPath clipPathUnits="userSpaceOnUse" id="clipPath4">
        <path d="M475.7248 -204.3242 L475.7248 941.9258 L-621.7753 941.9258 L-621.7753 -204.3242 L475.7248 -204.3242 Z"/>
      </clipPath>
      <clipPath clipPathUnits="userSpaceOnUse" id="clipPath5">
        <path d="M496.7282 -685.5318 L496.7282 460.7182 L-600.7719 460.7182 L-600.7719 -685.5318 L496.7282 -685.5318 Z"/>
      </clipPath>
      <clipPath clipPathUnits="userSpaceOnUse" id="clipPath6">
        <path d="M-339.1507 755.5527 L-339.1507 -390.6973 L758.3493 -390.6973 L758.3493 755.5527 L-339.1507 755.5527 Z"/>
      </clipPath>
    </defs>
    <g fill="white" text-rendering="geometricPrecision" shape-rendering="geometricPrecision" transform="scale(0.8,0.8) translate(1503,157)" stroke="white">
      <rect x="-1503" width="1147" height="1098" y="-157" clip-path="url(#clipPath2)" stroke="none"/>
    </g>
    <g fill="rgb(232,232,232)" text-rendering="geometricPrecision" shape-rendering="geometricPrecision" transform="matrix(0.8,0,0,0.8,1202.4,125.6)" stroke="rgb(232,232,232)">
      <rect x="-1270.0117" width="414.8" height="349.8" y="96.8174" clip-path="url(#clipPath2)" stroke="none"/>
    </g>
    <g text-rendering="geometricPrecision" stroke-miterlimit="1.45" shape-rendering="geometricPrecision" transform="matrix(0.8,0,0,0.8,1202.4,125.6)" stroke-linecap="butt">
      <rect fill="none" x="-1270.0117" width="414.8" height="349.8" y="96.8174" clip-path="url(#clipPath2)"/>
    </g>
    <g fill="rgb(204,153,255)" text-rendering="geometricPrecision" shape-rendering="geometricPrecision" transform="matrix(0.8,0,0,0.8,1202.4,125.6)" stroke="rgb(204,153,255)">
      <ellipse rx="34.9441" ry="11.27" clip-path="url(#clipPath2)" cx="-584.6248" cy="596.0227" stroke="none"/>
    </g>
    <g text-rendering="geometricPrecision" stroke-miterlimit="1.45" shape-rendering="geometricPrecision" transform="matrix(0.8,0,0,0.8,1202.4,125.6)" stroke-linecap="butt">
      <ellipse rx="34.9441" fill="none" ry="11.27" clip-path="url(#clipPath2)" cx="-584.6248" cy="596.0227"/>
      <text x="-601.3094" xml:space="preserve" y="600.7365" clip-path="url(#clipPath2)" font-family="sans-serif" stroke="none">_end_</text>
    </g>
    <g fill="rgb(136,240,102)" text-rendering="geometricPrecision" shape-rendering="geometricPrecision" transform="matrix(0.8,0,0,0.8,1202.4,125.6)" stroke="rgb(136,240,102)">
      <rect x="-714.5291" y="674.6659" clip-path="url(#clipPath2)" width="259.8085" rx="20" ry="20" height="40" stroke="none"/>
    </g>
    <g font-size="9px" stroke-linecap="butt" transform="matrix(0.8,0,0,0.8,1202.4,125.6)" text-rendering="geometricPrecision" font-family="sans-serif" shape-rendering="geometricPrecision" stroke-miterlimit="1.45">
      <text x="-702.9476" xml:space="preserve" y="687.1754" clip-path="url(#clipPath2)" stroke="none">Im Jahr 2020 betrugen die externen FuE-Aufwendungen im</text>
      <text x="-700.9305" xml:space="preserve" y="698.2012" clip-path="url(#clipPath2)" stroke="none">Wirtschaftssektor in Deutschland bei forschungsintensiven</text>
      <text x="-677.9273" xml:space="preserve" y="709.2271" clip-path="url(#clipPath2)" stroke="none">Wirtschaftszweigen 21.493.098 Tausend Euro.</text>
    </g>
    <g fill="rgb(204,153,255)" text-rendering="geometricPrecision" shape-rendering="geometricPrecision" transform="matrix(0.8,0,0,0.8,1202.4,125.6)" stroke="rgb(204,153,255)">
      <ellipse rx="34.9441" ry="11.27" clip-path="url(#clipPath2)" cx="-1304.9558" cy="19.5394" stroke="none"/>
    </g>
    <g text-rendering="geometricPrecision" stroke-miterlimit="1.45" shape-rendering="geometricPrecision" transform="matrix(0.8,0,0,0.8,1202.4,125.6)" stroke-linecap="butt">
      <ellipse rx="34.9441" fill="none" ry="11.27" clip-path="url(#clipPath2)" cx="-1304.9558" cy="19.5394"/>
      <text x="-1323.2986" xml:space="preserve" y="24.2532" clip-path="url(#clipPath2)" font-family="sans-serif" stroke="none">_start_</text>
    </g>
    <g fill="rgb(255,204,0)" text-rendering="geometricPrecision" shape-rendering="geometricPrecision" transform="matrix(0.8,0,0,0.8,1202.4,125.6)" stroke="rgb(255,204,0)">
      <rect x="-1491.3018" y="-61.7307" clip-path="url(#clipPath2)" width="238.0842" rx="20" ry="20" height="40" stroke="none"/>
    </g>
    <g font-size="9px" stroke-linecap="butt" transform="matrix(0.8,0,0,0.8,1202.4,125.6)" text-rendering="geometricPrecision" font-family="sans-serif" shape-rendering="geometricPrecision" stroke-miterlimit="1.45">
      <text x="-1469.0712" xml:space="preserve" y="-49.2211" clip-path="url(#clipPath2)" stroke="none">Wie hoch waren die externe fue-aufwendungen, </text>
      <text x="-1475.0499" xml:space="preserve" y="-38.1953" clip-path="url(#clipPath2)" stroke="none">im Jahr 2020, in Deutschland, im wirtschaftssektor, </text>
      <text x="-1480.8134" xml:space="preserve" y="-27.1694" clip-path="url(#clipPath2)" stroke="none">bei forschungsintensive wirtschaftszweige Forschung?</text>
    </g>
    <g fill="white" text-rendering="geometricPrecision" shape-rendering="geometricPrecision" transform="matrix(0.8,0,0,0.8,1202.4,125.6)" stroke="white">
      <rect x="-615.4976" y="-1.149" clip-path="url(#clipPath2)" width="77.6604" rx="4" ry="4" height="41.3768" stroke="none"/>
    </g>
    <g text-rendering="geometricPrecision" stroke-miterlimit="1.45" shape-rendering="geometricPrecision" transform="matrix(0.8,0,0,0.8,1202.4,125.6)" stroke-linecap="butt">
      <rect x="-615.4976" y="-1.149" clip-path="url(#clipPath2)" fill="none" width="77.6604" rx="4" ry="4" height="41.3768"/>
      <text x="-591.6821" xml:space="preserve" y="24.2532" clip-path="url(#clipPath2)" font-family="sans-serif" stroke="none">agent</text>
    </g>
    <g fill="white" text-rendering="geometricPrecision" shape-rendering="geometricPrecision" transform="matrix(0.8,0,0,0.8,1202.4,125.6)" stroke="white">
      <rect x="-1095.5354" y="-1.149" clip-path="url(#clipPath2)" width="77.6604" rx="4" ry="4" height="41.3768" stroke="none"/>
    </g>
    <g text-rendering="geometricPrecision" stroke-miterlimit="1.45" shape-rendering="geometricPrecision" transform="matrix(0.8,0,0,0.8,1202.4,125.6)" stroke-linecap="butt">
      <rect x="-1095.5354" y="-1.149" clip-path="url(#clipPath2)" fill="none" width="77.6604" rx="4" ry="4" height="41.3768"/>
      <text x="-1071.7198" xml:space="preserve" y="24.2532" clip-path="url(#clipPath2)" font-family="sans-serif" stroke="none">agent</text>
    </g>
    <g fill="white" text-rendering="geometricPrecision" shape-rendering="geometricPrecision" transform="matrix(0.8,0,0,0.8,1202.4,125.6)" stroke="white">
      <rect x="-1092.7052" width="80" height="40" y="112.8174" clip-path="url(#clipPath2)" stroke="none"/>
    </g>
    <g text-rendering="geometricPrecision" stroke-miterlimit="1.45" shape-rendering="geometricPrecision" transform="matrix(0.8,0,0,0.8,1202.4,125.6)" stroke-linecap="butt">
      <rect fill="none" x="-1092.7052" width="80" height="40" y="112.8174" clip-path="url(#clipPath2)"/>
      <path fill="none" d="M-1082.7052 112.8174 L-1082.7052 152.8174 M-1022.7052 112.8174 L-1022.7052 152.8174 M-1082.7052 112.8174 Z" clip-path="url(#clipPath2)"/>
      <text x="-1077.045" xml:space="preserve" y="137.5313" clip-path="url(#clipPath2)" font-family="sans-serif" stroke="none">Retriever</text>
    </g>
    <g fill="url(#linearGradient1)" text-rendering="geometricPrecision" shape-rendering="geometricPrecision" transform="matrix(0.8,0,0,0.8,1202.4,125.6)" stroke="url(#linearGradient1)">
      <path d="M-1052.7052 330.9946 L-1012.7052 350.9946 L-1052.7052 370.9946 L-1092.7052 350.9946 Z" stroke="none" clip-path="url(#clipPath2)"/>
    </g>
    <g text-rendering="geometricPrecision" stroke-miterlimit="1.45" shape-rendering="geometricPrecision" transform="matrix(0.8,0,0,0.8,1202.4,125.6)" stroke-linecap="butt">
      <path fill="none" d="M-1052.7052 330.9946 L-1012.7052 350.9946 L-1052.7052 370.9946 L-1092.7052 350.9946 Z" clip-path="url(#clipPath2)"/>
      <text x="-1073.0519" xml:space="preserve" y="355.7085" clip-path="url(#clipPath2)" font-family="sans-serif" stroke="none">OpenAI</text>
    </g>
    <g fill="rgb(255,204,0)" text-rendering="geometricPrecision" shape-rendering="geometricPrecision" transform="matrix(0.8,0,0,0.8,1202.4,125.6)" stroke="rgb(255,204,0)">
      <rect x="-1193.7057" y="183.706" clip-path="url(#clipPath2)" width="282.001" rx="4" ry="4" height="116.4" stroke="none"/>
    </g>
    <g font-size="9px" stroke-linecap="butt" transform="matrix(0.8,0,0,0.8,1202.4,125.6)" text-rendering="geometricPrecision" font-family="sans-serif" shape-rendering="geometricPrecision" stroke-miterlimit="1.45">
      <text x="-1185.5299" xml:space="preserve" y="195.825" clip-path="url(#clipPath2)" stroke="none">Externe FuE-Aufwendungen</text>
      <text x="-1185.5299" xml:space="preserve" y="206.8508" clip-path="url(#clipPath2)" stroke="none">FuE-Aufwendungen (vom Wirtschaftssektor finanziert)</text>
      <text x="-1185.5299" xml:space="preserve" y="217.8767" clip-path="url(#clipPath2)" stroke="none">FuE-Aufwendungen (vom Staatssektor finanziert)</text>
      <text x="-1185.5299" xml:space="preserve" y="228.9026" clip-path="url(#clipPath2)" stroke="none">Externe FuE für nicht verbundene Unternehmen (Inland)</text>
      <text x="-1185.5299" xml:space="preserve" y="239.9285" clip-path="url(#clipPath2)" stroke="none">Externe FuE (Netto)</text>
      <text x="-1185.5299" xml:space="preserve" y="250.9543" clip-path="url(#clipPath2)" stroke="none">Externe FuE für verbundene Unternehmen (Inland)</text>
      <text x="-1185.5299" xml:space="preserve" y="261.9802" clip-path="url(#clipPath2)" stroke="none">Externe FuE für staatliche Forschungsinstitute (Inland)</text>
      <text x="-1185.5299" xml:space="preserve" y="273.0061" clip-path="url(#clipPath2)" stroke="none">Externe FuE (Wirtschaft)</text>
      <text x="-1185.5299" xml:space="preserve" y="284.032" clip-path="url(#clipPath2)" stroke="none">Interne FuE-Aufwendungen</text>
      <text x="-1185.5299" xml:space="preserve" y="295.0579" clip-path="url(#clipPath2)" stroke="none">Externe FuE für sonstige Institutionen und Unternehmen (Ausland)</text>
    </g>
    <g fill="rgb(255,204,0)" text-rendering="geometricPrecision" shape-rendering="geometricPrecision" transform="matrix(0.8,0,0,0.8,1202.4,125.6)" stroke="rgb(255,204,0)">
      <rect x="-1229.4335" y="183.706" clip-path="url(#clipPath2)" width="30" rx="4" ry="4" height="204.4" stroke="none"/>
    </g>
    <g font-size="9px" stroke-linecap="butt" transform="matrix(0,0.8,-0.8,0,241.2739,284.8803)" text-rendering="geometricPrecision" font-family="sans-serif" shape-rendering="geometricPrecision" stroke-miterlimit="1.45">
      <text x="2" xml:space="preserve" y="11.0483" clip-path="url(#clipPath3)" stroke="none">Wähle exakt eine der folgenden Variablen,</text>
      <text x="2" xml:space="preserve" y="22.0742" clip-path="url(#clipPath3)" stroke="none">die am besten zur Frage passt.</text>
    </g>
    <g fill="rgb(255,204,0)" text-rendering="geometricPrecision" shape-rendering="geometricPrecision" transform="matrix(0.8,0,0,0.8,1202.4,125.6)" stroke="rgb(255,204,0)">
      <rect x="-1229.4335" y="395.3946" clip-path="url(#clipPath2)" width="317.7288" rx="4" ry="4" height="30" stroke="none"/>
    </g>
    <g font-size="9px" stroke-linecap="butt" transform="matrix(0.8,0,0,0.8,1202.4,125.6)" text-rendering="geometricPrecision" font-family="sans-serif" shape-rendering="geometricPrecision" stroke-miterlimit="1.45">
      <text x="-1135.5708" xml:space="preserve" y="413.93" clip-path="url(#clipPath2)" stroke="none">[('Externe FuE-Aufwendungen',)]</text>
    </g>
    <g fill="rgb(212,212,212)" text-rendering="geometricPrecision" shape-rendering="geometricPrecision" transform="matrix(0.8,0,0,0.8,1202.4,125.6)" stroke="rgb(212,212,212)">
      <path d="M-1312.0116 271.7174 L-1291.0117 96.8174 L-1270.0117 271.7174 L-1291.0117 446.6174 Z" fill-rule="evenodd" clip-path="url(#clipPath2)" stroke="none"/>
    </g>
    <g text-rendering="geometricPrecision" stroke-miterlimit="1.45" shape-rendering="geometricPrecision" transform="matrix(0.8,0,0,0.8,1202.4,125.6)" stroke-linecap="butt">
      <path fill="none" d="M-1312.0116 271.7174 L-1291.0117 96.8174 L-1270.0117 271.7174 L-1291.0117 446.6174 Z" fill-rule="evenodd" clip-path="url(#clipPath2)"/>
    </g>
    <g font-size="10px" stroke-linecap="butt" transform="matrix(-0,-0.8,0.8,-0,163.4594,380.5798)" text-rendering="geometricPrecision" font-family="'Courier New'" shape-rendering="geometricPrecision" stroke-miterlimit="1.45">
      <text x="2" xml:space="preserve" y="10.3252" clip-path="url(#clipPath4)" stroke="none">variable_beschr</text>
    </g>
    <g fill="rgb(232,232,232)" text-rendering="geometricPrecision" shape-rendering="geometricPrecision" transform="matrix(0.8,0,0,0.8,1202.4,125.6)" stroke="rgb(232,232,232)">
      <rect x="-788.8041" width="414.8" height="349.8" y="96.8174" clip-path="url(#clipPath2)" stroke="none"/>
    </g>
    <g text-rendering="geometricPrecision" stroke-miterlimit="1.45" shape-rendering="geometricPrecision" transform="matrix(0.8,0,0,0.8,1202.4,125.6)" stroke-linecap="butt">
      <rect fill="none" x="-788.8041" width="414.8" height="349.8" y="96.8174" clip-path="url(#clipPath2)"/>
    </g>
    <g fill="rgb(255,204,0)" text-rendering="geometricPrecision" shape-rendering="geometricPrecision" transform="matrix(0.8,0,0,0.8,1202.4,125.6)" stroke="rgb(255,204,0)">
      <rect x="-738.5756" y="177.8174" clip-path="url(#clipPath2)" width="301.2704" rx="4" ry="4" height="78.512" stroke="none"/>
    </g>
    <g font-size="9px" stroke-linecap="butt" transform="matrix(0.8,0,0,0.8,1202.4,125.6)" text-rendering="geometricPrecision" font-family="sans-serif" shape-rendering="geometricPrecision" stroke-miterlimit="1.45">
      <text x="-718.335" xml:space="preserve" y="193.0441" clip-path="url(#clipPath2)" stroke="none">Wirtschaftssektor | Deutschland | Maschinenbau</text>
      <text x="-718.335" xml:space="preserve" y="204.07" clip-path="url(#clipPath2)" stroke="none">Wirtschaftssektor | Deutschland | Hochwertige Technik</text>
      <text x="-718.335" xml:space="preserve" y="215.0959" clip-path="url(#clipPath2)" stroke="none">Wirtschaftssektor | Deutschland | Architektur-, Ing.büros [...]</text>
      <text x="-718.335" xml:space="preserve" y="226.1218" clip-path="url(#clipPath2)" stroke="none">Wirtschaftssektor | Deutschland | Information und Kommunikation</text>
      <text x="-718.335" xml:space="preserve" y="237.1477" clip-path="url(#clipPath2)" stroke="none">Wirtschaftssektor | Deutschland | 50 bis 99 Beschäftigte</text>
      <text x="-718.335" xml:space="preserve" y="248.1735" clip-path="url(#clipPath2)" stroke="none">Wirtschaftssektor | Deutschland | Landwirtschaft [...]</text>
    </g>
    <g fill="rgb(212,212,212)" text-rendering="geometricPrecision" shape-rendering="geometricPrecision" transform="matrix(0.8,0,0,0.8,1202.4,125.6)" stroke="rgb(212,212,212)">
      <path d="M-830.8041 271.7172 L-809.8041 96.8173 L-788.8041 271.7172 L-809.8041 446.6174 Z" fill-rule="evenodd" clip-path="url(#clipPath2)" stroke="none"/>
    </g>
    <g text-rendering="geometricPrecision" stroke-miterlimit="1.45" shape-rendering="geometricPrecision" transform="matrix(0.8,0,0,0.8,1202.4,125.6)" stroke-linecap="butt">
      <path fill="none" d="M-830.8041 271.7172 L-809.8041 96.8173 L-788.8041 271.7172 L-809.8041 446.6174 Z" fill-rule="evenodd" clip-path="url(#clipPath2)"/>
    </g>
    <g font-size="10px" stroke-linecap="butt" transform="matrix(-0,-0.8,0.8,-0,548.4254,397.3825)" text-rendering="geometricPrecision" font-family="'Courier New'" shape-rendering="geometricPrecision" stroke-miterlimit="1.45">
      <text x="2" xml:space="preserve" y="10.3252" clip-path="url(#clipPath5)" stroke="none">rt_reichweite_variable</text>
    </g>
    <g fill="rgb(212,212,212)" text-rendering="geometricPrecision" shape-rendering="geometricPrecision" transform="matrix(0.8,0,0,0.8,1202.4,125.6)" stroke="rgb(212,212,212)">
      <path d="M-771.4146 132.8176 L-695.5599 117.8176 L-619.7049 132.8176 L-695.5599 147.8177 Z" fill-rule="evenodd" clip-path="url(#clipPath2)" stroke="none"/>
    </g>
    <g text-rendering="geometricPrecision" stroke-miterlimit="1.45" shape-rendering="geometricPrecision" transform="matrix(0.8,0,0,0.8,1202.4,125.6)" stroke-linecap="butt">
      <path fill="none" d="M-771.4146 132.8176 L-695.5599 117.8176 L-619.7049 132.8176 L-695.5599 147.8177 Z" fill-rule="evenodd" clip-path="url(#clipPath2)"/>
      <text x="-740.5672" font-size="10px" y="135.4786" clip-path="url(#clipPath2)" font-family="'Courier New'" stroke="none" xml:space="preserve">variable_beschr</text>
    </g>
    <g fill="rgb(255,204,0)" text-rendering="geometricPrecision" shape-rendering="geometricPrecision" transform="matrix(0.8,0,0,0.8,1202.4,125.6)" stroke="rgb(255,204,0)">
      <rect x="-594.8529" y="117.8174" clip-path="url(#clipPath2)" width="157.5477" rx="4" ry="4" height="30" stroke="none"/>
    </g>
    <g font-size="9px" stroke-linecap="butt" transform="matrix(0.8,0,0,0.8,1202.4,125.6)" text-rendering="geometricPrecision" font-family="sans-serif" shape-rendering="geometricPrecision" stroke-miterlimit="1.45">
      <text x="-581.0807" xml:space="preserve" y="136.3528" clip-path="url(#clipPath2)" stroke="none">[('Externe FuE-Aufwendungen',)]</text>
    </g>
    <g fill="url(#linearGradient2)" text-rendering="geometricPrecision" shape-rendering="geometricPrecision" transform="matrix(0.8,0,0,0.8,1202.4,125.6)" stroke="url(#linearGradient2)">
      <path d="M-587.9404 329.9254 L-547.9404 349.9254 L-587.9404 369.9254 L-627.9404 349.9254 Z" stroke="none" clip-path="url(#clipPath2)"/>
    </g>
    <g text-rendering="geometricPrecision" stroke-miterlimit="1.45" shape-rendering="geometricPrecision" transform="matrix(0.8,0,0,0.8,1202.4,125.6)" stroke-linecap="butt">
      <path fill="none" d="M-587.9404 329.9254 L-547.9404 349.9254 L-587.9404 369.9254 L-627.9404 349.9254 Z" clip-path="url(#clipPath2)"/>
      <text x="-608.2871" xml:space="preserve" y="354.6393" clip-path="url(#clipPath2)" font-family="sans-serif" stroke="none">OpenAI</text>
    </g>
    <g fill="rgb(255,204,0)" text-rendering="geometricPrecision" shape-rendering="geometricPrecision" transform="matrix(0.8,0,0,0.8,1202.4,125.6)" stroke="rgb(255,204,0)">
      <rect x="-775.4732" y="177.8174" clip-path="url(#clipPath2)" width="30" rx="4" ry="4" height="210.2886" stroke="none"/>
    </g>
    <g font-size="9px" stroke-linecap="butt" transform="matrix(0,0.8,-0.8,0,604.4422,271.3206)" text-rendering="geometricPrecision" font-family="sans-serif" shape-rendering="geometricPrecision" stroke-miterlimit="1.45">
      <text x="2" xml:space="preserve" y="11.0483" clip-path="url(#clipPath6)" stroke="none">Wähle exakt eine der folgenden Reichweiten aus,</text>
      <text x="2" xml:space="preserve" y="22.0742" clip-path="url(#clipPath6)" stroke="none">die am besten zur Frage passt.</text>
    </g>
    <g fill="rgb(255,204,0)" text-rendering="geometricPrecision" shape-rendering="geometricPrecision" transform="matrix(0.8,0,0,0.8,1202.4,125.6)" stroke="rgb(255,204,0)">
      <rect x="-775.4732" y="393.9191" clip-path="url(#clipPath2)" width="338.168" rx="4" ry="4" height="30" stroke="none"/>
    </g>
    <g font-size="9px" stroke-linecap="butt" transform="matrix(0.8,0,0,0.8,1202.4,125.6)" text-rendering="geometricPrecision" font-family="sans-serif" shape-rendering="geometricPrecision" stroke-miterlimit="1.45">
      <text x="-760.4966" xml:space="preserve" y="412.4545" clip-path="url(#clipPath2)" stroke="none">[('Wirtschaftssektor | Deutschland | Forschungsintensive Wirtschaftszweige',)]</text>
    </g>
    <g fill="rgb(255,204,0)" text-rendering="geometricPrecision" shape-rendering="geometricPrecision" transform="matrix(0.8,0,0,0.8,1202.4,125.6)" stroke="rgb(255,204,0)">
      <rect x="-719.3063" y="263.2174" clip-path="url(#clipPath2)" width="282.001" rx="4" ry="4" height="30" stroke="none"/>
    </g>
    <g font-size="9px" stroke-linecap="butt" transform="matrix(0.8,0,0,0.8,1202.4,125.6)" text-rendering="geometricPrecision" font-family="sans-serif" shape-rendering="geometricPrecision" stroke-miterlimit="1.45">
      <text x="-684.8511" xml:space="preserve" y="281.7528" clip-path="url(#clipPath2)" stroke="none">Few Shot-Examples für die Reichweite `Deutschland`</text>
      <circle fill="none" r="15" clip-path="url(#clipPath2)" cx="-1064.6626" cy="498.7395"/>
      <text x="-1067.4434" xml:space="preserve" font-size="10px" y="502.6678" clip-path="url(#clipPath2)" stroke="none">4</text>
    </g>
    <g fill="white" text-rendering="geometricPrecision" shape-rendering="geometricPrecision" transform="matrix(0.8,0,0,0.8,1202.4,125.6)" stroke="white">
      <rect x="-367.4015" y="-1.149" clip-path="url(#clipPath2)" width="77.6604" rx="4" ry="4" height="41.3768" stroke="none"/>
      <rect x="-1103.4928" y="575.3343" clip-path="url(#clipPath2)" width="77.6604" rx="4" ry="4" height="41.3768" stroke="none"/>
    </g>
    <g text-rendering="geometricPrecision" stroke-miterlimit="1.45" shape-rendering="geometricPrecision" transform="matrix(0.8,0,0,0.8,1202.4,125.6)" stroke-linecap="butt">
      <rect x="-1103.4928" y="575.3343" clip-path="url(#clipPath2)" fill="none" width="77.6604" rx="4" ry="4" height="41.3768"/>
      <text x="-1079.6772" xml:space="preserve" y="600.7365" clip-path="url(#clipPath2)" font-family="sans-serif" stroke="none">agent</text>
    </g>
    <g fill="white" text-rendering="geometricPrecision" shape-rendering="geometricPrecision" transform="matrix(0.8,0,0,0.8,1202.4,125.6)" stroke="white">
      <rect x="-1347.6721" y="575.3343" clip-path="url(#clipPath2)" width="77.6604" rx="4" ry="4" height="41.3768" stroke="none"/>
      <rect x="-1277.0226" y="659.6659" clip-path="url(#clipPath2)" fill="rgb(255,204,0)" width="424.72" rx="4" ry="4" height="70" stroke="none"/>
    </g>
    <g font-size="9px" stroke-linecap="butt" transform="matrix(0.8,0,0,0.8,1202.4,125.6)" text-rendering="geometricPrecision" font-family="sans-serif" shape-rendering="geometricPrecision" stroke-miterlimit="1.45">
      <text x="-1273.4226" xml:space="preserve" y="676.1495" clip-path="url(#clipPath2)" stroke="none">SELECT wert, wert_einheit FROM view_daten_reichweite_menge </text>
      <text x="-1273.4226" xml:space="preserve" y="687.1754" clip-path="url(#clipPath2)" stroke="none">WHERE variable_beschr = 'Externe FuE-Aufwendungen' </text>
      <text x="-1273.4226" xml:space="preserve" y="698.2012" clip-path="url(#clipPath2)" stroke="none">AND reichweite_beschr_list = 'Wirtschaftssektor | Deutschland | Forschungsintensive Wirtschaftszweige' </text>
      <text x="-1273.4226" xml:space="preserve" y="709.2271" clip-path="url(#clipPath2)" stroke="none">AND date_part('year', zeit_start) = 2020</text>
      <text x="-1273.4226" xml:space="preserve" y="720.253" clip-path="url(#clipPath2)" stroke="none">LIMIT 5;</text>
    </g>
    <g text-rendering="geometricPrecision" stroke-miterlimit="1.45" shape-rendering="geometricPrecision" transform="matrix(0.8,0,0,0.8,1202.4,125.6)" stroke-linecap="butt">
      <path fill="none" d="M-1090.6117 742.3412 C-1089.0547 734.0659 -1040.2704 734.0659 -1038.7135 742.3412 L-1038.7135 767.1672 C-1040.2704 775.4426 -1089.0547 775.4426 -1090.6117 767.1672 Z" clip-path="url(#clipPath2)"/>
      <path fill="none" d="M-1038.7135 742.3412 C-1040.2704 750.6166 -1089.0547 750.6166 -1090.6117 742.3412" clip-path="url(#clipPath2)"/>
      <text x="-1084.3413" xml:space="preserve" y="759.4681" clip-path="url(#clipPath2)" font-family="sans-serif" stroke="none">Magpie</text>
    </g>
    <g fill="rgb(255,204,0)" text-rendering="geometricPrecision" shape-rendering="geometricPrecision" transform="matrix(0.8,0,0,0.8,1202.4,125.6)" stroke="rgb(255,204,0)">
      <rect x="-1001.2732" y="739.7542" clip-path="url(#clipPath2)" width="148.9706" rx="4" ry="4" height="30" stroke="none"/>
    </g>
    <g font-size="9px" stroke-linecap="butt" transform="matrix(0.8,0,0,0.8,1202.4,125.6)" text-rendering="geometricPrecision" font-family="sans-serif" shape-rendering="geometricPrecision" stroke-miterlimit="1.45">
      <text x="-982.504" xml:space="preserve" y="758.2896" clip-path="url(#clipPath2)" stroke="none">[('21493098', 'in Tsd. Euro')]</text>
      <circle fill="none" r="15" clip-path="url(#clipPath2)" cx="-584.6248" cy="498.7395"/>
      <text x="-587.4056" xml:space="preserve" font-size="10px" y="502.6678" clip-path="url(#clipPath2)" stroke="none">5</text>
      <circle fill="none" r="15" clip-path="url(#clipPath2)" cx="-1056.7052" cy="-116.7387"/>
      <text x="-1059.486" xml:space="preserve" font-size="10px" y="-112.8105" clip-path="url(#clipPath2)" stroke="none">2</text>
      <circle fill="none" r="15" clip-path="url(#clipPath2)" cx="-576.6674" cy="-116.7387"/>
      <text x="-579.4482" xml:space="preserve" font-size="10px" y="-112.8105" clip-path="url(#clipPath2)" stroke="none">3</text>
      <circle fill="none" r="15" clip-path="url(#clipPath2)" cx="-1372.2597" cy="-116.7387"/>
      <text x="-1375.0404" xml:space="preserve" font-size="10px" y="-112.8105" clip-path="url(#clipPath2)" stroke="none">1</text>
      <path fill="none" d="M-584.6248 607.2927 L-584.6248 659.657" clip-path="url(#clipPath2)"/>
    </g>
    <g stroke-linecap="butt" transform="matrix(0.8,0,0,0.8,1202.4,125.6)" fill="white" text-rendering="geometricPrecision" shape-rendering="geometricPrecision" stroke="white" stroke-miterlimit="1.45">
      <path d="M-584.6248 674.657 L-578.6248 658.657 L-590.6248 658.657 Z" stroke="none" clip-path="url(#clipPath2)"/>
      <path fill="none" d="M-584.6248 674.657 L-578.6248 658.657 L-590.6248 658.657 Z" clip-path="url(#clipPath2)" stroke="black"/>
      <path fill="none" d="M-1372.2596 -21.7209 L-1372.2596 19.5394 L-1354.9293 19.5394" clip-path="url(#clipPath2)" stroke="black"/>
      <path d="M-1339.9293 19.5394 L-1355.9293 13.5394 L-1355.9293 25.5394 Z" clip-path="url(#clipPath2)" stroke="none"/>
      <path fill="none" d="M-1339.9293 19.5394 L-1355.9293 13.5394 L-1355.9293 25.5394 Z" clip-path="url(#clipPath2)" stroke="black"/>
      <path fill="none" d="M-1270.0117 19.5394 L-1110.5284 19.5394" clip-path="url(#clipPath2)" stroke="black"/>
      <path d="M-1095.5284 19.5394 L-1111.5284 13.5394 L-1111.5284 25.5394 Z" clip-path="url(#clipPath2)" stroke="none"/>
      <path fill="none" d="M-1095.5284 19.5394 L-1111.5284 13.5394 L-1111.5284 25.5394 Z" clip-path="url(#clipPath2)" stroke="black"/>
      <path fill="none" d="M-1017.8838 19.5394 L-630.4731 19.5394" clip-path="url(#clipPath2)" stroke="black"/>
      <path d="M-615.4731 19.5394 L-631.4731 13.5394 L-631.4731 25.5394 Z" clip-path="url(#clipPath2)" stroke="none"/>
      <path fill="none" d="M-615.4731 19.5394 L-631.4731 13.5394 L-631.4731 25.5394 Z" clip-path="url(#clipPath2)" stroke="black"/>
      <path fill="none" d="M-1075.8025 40.2456 L-1075.8025 69.404 L-1214.4335 69.404 L-1214.4335 132.8174 L-1107.703 132.8174" clip-path="url(#clipPath2)" stroke="black"/>
      <path d="M-1092.703 132.8174 L-1108.703 126.8174 L-1108.703 138.8174 Z" clip-path="url(#clipPath2)" stroke="none"/>
      <path fill="none" d="M-1092.703 132.8174 L-1108.703 126.8174 L-1108.703 138.8174 Z" clip-path="url(#clipPath2)" stroke="black"/>
      <path fill="none" d="M-1052.7052 152.8188 L-1052.7052 168.747" clip-path="url(#clipPath2)" stroke="black"/>
      <path d="M-1052.7052 183.747 L-1046.7052 167.747 L-1058.7052 167.747 Z" clip-path="url(#clipPath2)" stroke="none"/>
      <path fill="none" d="M-1052.7052 183.747 L-1046.7052 167.747 L-1058.7052 167.747 Z" clip-path="url(#clipPath2)" stroke="black"/>
      <path fill="none" d="M-1052.7052 300.099 L-1052.7052 315.9644" clip-path="url(#clipPath2)" stroke="black"/>
      <path d="M-1052.7052 330.9644 L-1046.7052 314.9644 L-1058.7052 314.9644 Z" clip-path="url(#clipPath2)" stroke="none"/>
      <path fill="none" d="M-1052.7052 330.9644 L-1046.7052 314.9644 L-1058.7052 314.9644 Z" clip-path="url(#clipPath2)" stroke="black"/>
      <path fill="none" d="M-1199.4045 350.9946 L-1107.7109 350.9946" clip-path="url(#clipPath2)" stroke="black"/>
      <path d="M-1092.7109 350.9946 L-1108.7109 344.9946 L-1108.7109 356.9946 Z" clip-path="url(#clipPath2)" stroke="none"/>
      <path fill="none" d="M-1092.7109 350.9946 L-1108.7109 344.9946 L-1108.7109 356.9946 Z" clip-path="url(#clipPath2)" stroke="black"/>
      <path fill="none" d="M-1052.2653 370.7349 L-1052.0503 380.3767" clip-path="url(#clipPath2)" stroke="black"/>
      <path d="M-1051.7161 395.373 L-1046.0741 379.2433 L-1058.071 379.5107 Z" clip-path="url(#clipPath2)" stroke="none"/>
      <path fill="none" d="M-1051.7161 395.373 L-1046.0741 379.2433 L-1058.071 379.5107 Z" clip-path="url(#clipPath2)" stroke="black"/>
      <path fill="none" stroke-dasharray="6,2" d="M-911.7398 410.3946 L-883.2484 410.3946 L-883.2484 69.404 L-1032.1384 69.404 L-1032.1384 55.2399" clip-path="url(#clipPath2)" stroke="black"/>
      <path stroke-dasharray="6,2" d="M-1032.1384 40.2399 L-1038.1384 56.2399 L-1026.1384 56.2399 Z" clip-path="url(#clipPath2)" stroke="none"/>
      <path fill="none" d="M-1032.1384 40.2399 L-1038.1384 56.2399 L-1026.1384 56.2399 Z" clip-path="url(#clipPath2)" stroke="black"/>
      <path fill="none" d="M-592.1873 40.2513 L-592.1873 68.5226 L-695.5599 68.5226 L-695.5599 102.8425" clip-path="url(#clipPath2)" stroke="black"/>
      <path d="M-695.5599 117.8425 L-689.5599 101.8425 L-701.5599 101.8425 Z" clip-path="url(#clipPath2)" stroke="none"/>
      <path fill="none" d="M-695.5599 117.8425 L-689.5599 101.8425 L-701.5599 101.8425 Z" clip-path="url(#clipPath2)" stroke="black"/>
      <path fill="none" d="M-619.71 132.8174 L-609.8395 132.8174" clip-path="url(#clipPath2)" stroke="black"/>
      <path d="M-594.8395 132.8174 L-610.8395 126.8174 L-610.8395 138.8174 Z" clip-path="url(#clipPath2)" stroke="none"/>
      <path fill="none" d="M-594.8395 132.8174 L-610.8395 126.8174 L-610.8395 138.8174 Z" clip-path="url(#clipPath2)" stroke="black"/>
      <path fill="none" d="M-516.079 147.7881 L-516.079 162.8174 L-694.1129 162.8174 L-693.9359 163.4166" clip-path="url(#clipPath2)" stroke="black"/>
      <path d="M-689.6878 177.8025 L-688.4648 160.7583 L-699.9734 164.1568 Z" clip-path="url(#clipPath2)" stroke="none"/>
      <path fill="none" d="M-689.6878 177.8025 L-688.4648 160.7583 L-699.9734 164.1568 Z" clip-path="url(#clipPath2)" stroke="black"/>
      <path fill="none" d="M-726.664 256.3673 L-726.664 304.9953 L-587.9404 304.9953 L-587.9404 314.9614" clip-path="url(#clipPath2)" stroke="black"/>
      <path d="M-587.9404 329.9614 L-581.9404 313.9614 L-593.9404 313.9614 Z" clip-path="url(#clipPath2)" stroke="none"/>
      <path fill="none" d="M-587.9404 329.9614 L-581.9404 313.9614 L-593.9404 313.9614 Z" clip-path="url(#clipPath2)" stroke="black"/>
      <path fill="none" d="M-745.4417 349.9254 L-642.9694 349.9254" clip-path="url(#clipPath2)" stroke="black"/>
      <path d="M-627.9694 349.9254 L-643.9694 343.9254 L-643.9694 355.9254 Z" clip-path="url(#clipPath2)" stroke="none"/>
      <path fill="none" d="M-627.9694 349.9254 L-643.9694 343.9254 L-643.9694 355.9254 Z" clip-path="url(#clipPath2)" stroke="black"/>
      <path fill="none" d="M-587.9404 369.9352 L-587.9404 378.8853" clip-path="url(#clipPath2)" stroke="black"/>
      <path d="M-587.9404 393.8853 L-581.9404 377.8853 L-593.9404 377.8853 Z" clip-path="url(#clipPath2)" stroke="none"/>
      <path fill="none" d="M-587.9404 393.8853 L-581.9404 377.8853 L-593.9404 377.8853 Z" clip-path="url(#clipPath2)" stroke="black"/>
      <path fill="none" stroke-dasharray="6,2" d="M-437.2768 408.9191 L-408.1963 408.9191 L-408.1963 69.0536 L-556.9963 69.0536 L-556.9963 55.1965" clip-path="url(#clipPath2)" stroke="black"/>
      <path stroke-dasharray="6,2" d="M-556.9963 40.1965 L-562.9963 56.1965 L-550.9963 56.1965 Z" clip-path="url(#clipPath2)" stroke="none"/>
      <path fill="none" d="M-556.9963 40.1965 L-562.9963 56.1965 L-550.9963 56.1965 Z" clip-path="url(#clipPath2)" stroke="black"/>
      <path fill="none" d="M-450.693 293.2315 L-450.693 349.9254 L-532.9658 349.9254" clip-path="url(#clipPath2)" stroke="black"/>
      <path d="M-547.9658 349.9254 L-531.9658 355.9254 L-531.9658 343.9254 Z" clip-path="url(#clipPath2)" stroke="none"/>
      <path fill="none" d="M-547.9658 349.9254 L-531.9658 355.9254 L-531.9658 343.9254 Z" clip-path="url(#clipPath2)" stroke="black"/>
      <path fill="none" d="M-537.8116 19.5394 L-382.4207 19.5394" clip-path="url(#clipPath2)" stroke="black"/>
      <path d="M-367.4207 19.5394 L-383.4207 13.5394 L-383.4207 25.5394 Z" clip-path="url(#clipPath2)" stroke="none"/>
      <path fill="none" d="M-367.4207 19.5394 L-383.4207 13.5394 L-383.4207 25.5394 Z" clip-path="url(#clipPath2)" stroke="black"/>
      <path fill="none" d="M-1025.8412 596.0226 L-634.5689 596.0226" clip-path="url(#clipPath2)" stroke="black"/>
      <path d="M-619.5689 596.0226 L-635.5689 590.0226 L-635.5689 602.0226 Z" clip-path="url(#clipPath2)" stroke="none"/>
      <path fill="none" d="M-619.5689 596.0226 L-635.5689 590.0226 L-635.5689 602.0226 Z" clip-path="url(#clipPath2)" stroke="black"/>
      <path fill="none" d="M-1270.0033 596.0226 L-1118.4899 596.0226" clip-path="url(#clipPath2)" stroke="black"/>
      <path d="M-1103.4899 596.0226 L-1119.4899 590.0226 L-1119.4899 602.0226 Z" clip-path="url(#clipPath2)" stroke="none"/>
      <path fill="none" d="M-1103.4899 596.0226 L-1119.4899 590.0226 L-1119.4899 602.0226 Z" clip-path="url(#clipPath2)" stroke="black"/>
      <path fill="none" d="M-1086.1576 616.7166 L-1086.1576 639.6658 L-1240.9541 639.6658 L-1240.9541 644.6306" clip-path="url(#clipPath2)" stroke="black"/>
      <path d="M-1240.9541 659.6306 L-1234.9541 643.6306 L-1246.9541 643.6306 Z" clip-path="url(#clipPath2)" stroke="none"/>
      <path fill="none" d="M-1240.9541 659.6306 L-1234.9541 643.6306 L-1246.9541 643.6306 Z" clip-path="url(#clipPath2)" stroke="black"/>
      <path fill="none" d="M-1244.5286 729.7132 L-1244.5286 754.7542 L-1105.6149 754.7542" clip-path="url(#clipPath2)" stroke="black"/>
      <path d="M-1090.6149 754.7542 L-1106.6149 748.7542 L-1106.6149 760.7542 Z" clip-path="url(#clipPath2)" stroke="none"/>
      <path fill="none" d="M-1090.6149 754.7542 L-1106.6149 748.7542 L-1106.6149 760.7542 Z" clip-path="url(#clipPath2)" stroke="black"/>
      <path fill="none" d="M-1038.7101 754.7542 L-1016.2479 754.7542" clip-path="url(#clipPath2)" stroke="black"/>
      <path d="M-1001.2479 754.7542 L-1017.2479 748.7542 L-1017.2479 760.7542 Z" clip-path="url(#clipPath2)" stroke="none"/>
      <path fill="none" d="M-1001.2479 754.7542 L-1017.2479 748.7542 L-1017.2479 760.7542 Z" clip-path="url(#clipPath2)" stroke="black"/>
      <path fill="none" stroke-dasharray="6,2" d="M-852.2792 754.7542 L-832.3026 754.7542 L-832.3026 637.959 L-1040.791 637.959 L-1040.791 631.717" clip-path="url(#clipPath2)" stroke="black"/>
      <path stroke-dasharray="6,2" d="M-1040.791 616.717 L-1046.791 632.717 L-1034.791 632.717 Z" clip-path="url(#clipPath2)" stroke="none"/>
      <path fill="none" d="M-1040.791 616.717 L-1046.791 632.717 L-1034.791 632.717 Z" clip-path="url(#clipPath2)" stroke="black"/>
    </g>
  </g>
</svg>
