<svg version="1.1" id="Layer_1" xmlns="http://www.w3.org/2000/svg" xmlns:xlink="http://www.w3.org/1999/xlink" x="0px" y="0px"
	 width="100%" viewBox="0 0 688 688" enable-background="new 0 0 688 688" xml:space="preserve">
<path fill="#000000" opacity="1.000000" stroke="none" 
	d="
M424.586121,474.806152 
	C424.395844,459.177155 423.350250,443.969391 424.182373,428.865082 
	C426.134521,393.430695 424.749817,357.998840 424.854248,322.574280 
	C424.884857,312.183990 424.160156,301.695648 423.925568,291.246796 
	C423.890839,289.699585 423.639160,288.203217 422.245087,287.273315 
	C416.870728,283.688416 413.429840,278.241364 409.151062,273.616272 
	C402.348694,266.263428 399.399597,257.032928 397.608429,247.443192 
	C396.640198,242.259491 401.261169,235.203873 406.277252,233.561371 
	C409.934021,232.363983 413.296478,232.869751 415.643036,236.190948 
	C418.231384,239.854355 420.688843,243.616821 423.061829,247.424316 
	C426.806396,253.432480 431.516205,258.611938 436.976257,263.011932 
	C447.089600,271.161743 458.966248,271.596252 470.671753,268.516693 
	C479.075684,266.305756 484.505096,268.407227 489.649536,274.910645 
	C494.350189,280.853027 500.871704,281.533813 506.451721,277.727722 
	C513.363708,273.013184 515.512634,265.996613 512.120605,259.096893 
	C510.547058,255.896149 508.072632,253.405518 505.467590,251.057343 
	C504.907043,250.552094 503.881897,249.956314 503.324768,250.146469 
	C497.394714,252.170364 497.335571,248.444427 497.476471,244.376953 
	C497.606628,240.620377 494.592102,238.750702 492.251190,236.890930 
	C481.391907,228.263519 472.949982,217.088760 462.031799,208.544952 
	C457.580048,205.061325 453.602570,200.773865 448.734802,198.063477 
	C440.349121,193.394257 438.537628,185.864349 438.040619,177.471909 
	C437.852753,174.299103 437.891571,171.159058 435.831635,167.563324 
	C429.331329,171.044998 424.272064,176.453033 423.325287,183.124802 
	C422.003113,192.441315 416.669678,195.933182 409.000183,199.417847 
	C392.223511,207.040436 377.366119,217.273102 370.076050,235.404755 
	C368.950256,238.204742 367.932434,241.078751 368.029205,244.109116 
	C368.481567,258.275482 365.943176,272.402252 367.076324,286.531464 
	C368.269714,301.411560 358.350952,306.384399 346.975250,306.849762 
	C328.018921,307.625244 309.030884,308.754333 290.060303,307.821625 
	C276.692474,307.164337 265.442352,311.518066 254.792694,319.248260 
	C241.438461,328.941650 237.902466,342.295288 238.672119,357.675049 
	C238.713669,358.505463 238.877686,359.330475 238.905975,360.160645 
	C240.601913,409.932495 239.816193,459.722260 239.800797,509.504120 
	C239.798111,518.192871 236.098907,525.717651 227.859360,529.987549 
	C223.903732,532.037476 220.172714,531.167358 216.732117,528.343872 
	C210.001862,522.820801 206.305283,516.107483 206.999664,507.084961 
	C208.046021,493.488617 208.802200,479.826569 207.936600,466.223389 
	C207.153168,453.911560 207.055038,441.619415 207.041977,429.309601 
	C207.020111,408.683014 206.882416,388.054382 207.120178,367.430389 
	C207.286697,352.986328 208.664871,338.650696 213.102859,324.763245 
	C214.680786,319.825531 213.670868,319.012054 208.439148,319.631836 
	C192.382523,321.533936 181.356247,335.846527 179.720230,350.910126 
	C178.446899,362.634521 179.736603,374.155731 179.953522,385.771606 
	C180.119415,394.655731 170.317459,404.646362 161.415665,404.968475 
	C157.437210,405.112488 154.490631,402.726868 151.751083,400.301270 
	C144.691620,394.050873 142.363449,385.750977 143.258148,376.818146 
	C143.875534,370.654053 143.831985,364.531616 144.047089,358.387054 
	C144.606567,342.405609 148.904648,327.455963 157.920822,314.257538 
	C168.538498,298.714691 182.880890,289.388580 202.449570,288.854523 
	C212.562424,288.578552 222.381622,288.513214 231.377563,293.855103 
	C233.419983,295.067932 234.833328,294.077484 236.360489,293.015320 
	C239.910477,290.546295 243.477173,288.101044 247.009918,285.607574 
	C257.572510,278.152344 269.892548,276.674652 282.182190,276.109131 
	C295.819275,275.481537 309.509796,276.096558 323.174469,275.942505 
	C327.954041,275.888611 332.725983,275.157349 337.649353,274.722321 
	C338.922607,268.955078 337.698822,263.432648 336.927795,258.204956 
	C333.556824,235.349991 340.308777,216.061996 355.307465,198.907898 
	C366.601532,185.990768 379.907654,176.160339 395.701660,169.619141 
	C400.966827,167.438507 404.605927,163.775055 407.840179,159.011826 
	C414.899017,148.615845 423.867920,139.925751 434.432678,133.018051 
	C442.890045,127.488258 449.636566,129.475037 454.664825,138.207260 
	C459.153961,146.003235 460.116547,154.569107 460.914062,163.163940 
	C461.237579,166.650955 462.221710,169.070374 465.266998,170.931290 
	C481.125549,180.621994 492.879395,194.805450 505.353577,208.144760 
	C511.616943,214.842484 518.164612,221.270966 525.250732,226.961792 
	C538.809631,237.850952 546.152588,255.429657 540.780701,271.864563 
	C536.702515,284.341766 529.480164,296.148682 518.381775,303.458618 
	C508.382538,310.044708 496.189636,311.160034 484.181793,308.350464 
	C476.106262,306.460999 467.756195,305.329620 460.581329,300.623291 
	C459.762390,300.086121 458.746338,299.796021 457.409271,300.503143 
	C456.931824,308.398346 456.078003,316.481659 456.021454,324.570526 
	C455.843262,350.069000 455.277313,375.594818 456.213531,401.060364 
	C456.825897,417.716370 456.507874,434.351013 456.979462,450.985931 
	C457.362396,464.492706 455.439423,477.929260 455.918121,491.412170 
	C456.188110,499.016602 457.495789,506.521271 455.994293,514.209106 
	C454.145966,523.672485 449.292633,528.821838 440.223480,530.238770 
	C434.998169,531.055237 432.217346,527.458801 429.505920,524.428345 
	C426.384399,520.939636 424.880432,516.544739 425.053589,511.537476 
	C425.471558,499.450714 422.912750,487.390411 424.586121,474.806152 
z"/>
<path fill="#000000" opacity="1.000000" stroke="none" 
	d="
M380.957489,376.020416 
	C395.948517,375.978912 395.998352,375.979004 395.971069,390.304138 
	C395.896484,429.466675 394.999146,468.652161 396.159973,507.777161 
	C396.496216,519.108887 390.897064,524.324585 384.204742,530.353821 
	C381.940277,532.393982 379.177887,532.220703 376.754364,530.662537 
	C368.658600,525.457703 363.639832,518.921387 363.360229,508.368317 
	C362.852600,489.208130 363.241272,470.054169 363.379669,450.918091 
	C363.465363,439.073547 362.244598,427.174255 363.956055,415.304596 
	C364.910706,408.684143 363.817780,407.939514 356.962341,407.896881 
	C340.300201,407.793274 323.637726,407.728424 306.976227,407.560822 
	C303.136505,407.522186 300.998749,408.890594 300.929901,413.007629 
	C300.526215,437.145874 299.489502,461.293854 299.944214,485.414490 
	C300.092896,493.301819 300.613220,501.309692 300.954926,509.263428 
	C301.387512,519.332092 294.854462,524.916138 287.564697,529.936279 
	C285.898834,531.083496 283.826721,531.272888 281.785675,530.602661 
	C275.574249,528.562988 268.135559,518.846130 268.138000,512.247864 
	C268.145111,492.926392 267.774445,473.569733 268.429382,454.294708 
	C268.955017,438.825592 268.073425,423.346436 269.199982,407.944092 
	C269.802002,399.712708 269.348999,391.361572 271.369385,383.210541 
	C272.821442,377.352386 273.965973,375.821625 280.170197,376.125580 
	C287.642975,376.491791 295.092834,377.096741 302.592407,377.074341 
	C319.923096,377.022614 337.281189,377.774963 354.574127,376.998352 
	C363.198273,376.611023 371.829163,376.224579 380.957489,376.020416 
z"/>
<path fill="#000000" opacity="1.000000" stroke="none" 
	d="
M257.775238,204.848297 
	C253.308990,207.518417 248.987030,209.414307 244.184280,210.543442 
	C234.632233,212.789139 228.403915,218.497955 226.932693,228.727829 
	C226.300186,233.125839 225.690659,237.615677 221.899048,240.889664 
	C219.326294,243.111176 216.860413,243.426178 214.251663,241.461960 
	C210.610733,238.720581 207.198776,235.643372 206.942535,230.664917 
	C206.325943,218.684631 198.352676,213.555618 188.195984,210.903931 
	C182.744766,209.480728 178.364426,206.969498 175.108047,202.474182 
	C170.832245,196.571548 174.682892,187.296021 181.914307,186.131134 
	C185.026245,185.629822 188.172134,185.266129 191.317017,185.056168 
	C200.360748,184.452301 206.798019,177.775223 206.989563,168.618546 
	C207.052246,165.621201 206.872162,162.611847 207.069916,159.625656 
	C207.544708,152.456223 212.335999,147.362152 218.493500,147.271210 
	C223.821030,147.192490 228.589340,152.905853 229.055923,159.768753 
	C229.337173,163.905807 229.619354,168.056732 230.216965,172.155380 
	C231.379059,180.125473 236.878525,184.306671 247.791000,185.843704 
	C249.759674,186.121002 251.792068,186.219376 253.673508,186.796570 
	C263.650208,189.857193 265.466339,197.367004 257.775238,204.848297 
M216.836014,186.209122 
	C213.803421,188.344589 211.616409,191.245102 209.506058,194.229095 
	C208.711624,195.352386 207.751022,196.531738 208.852112,197.782120 
	C211.839432,201.174561 214.971817,204.439255 218.184769,207.903473 
	C220.978012,204.849930 223.269608,202.264160 225.653320,199.766312 
	C227.339203,197.999725 227.696671,196.402313 225.478363,194.829453 
	C222.194977,192.501389 219.975143,189.180511 216.836014,186.209122 
z"/>
<path fill="#000000" opacity="1.000000" stroke="none" 
	d="
M504.945038,398.211609 
	C506.913116,394.462433 507.160400,389.847076 512.229553,389.064209 
	C517.216980,388.293915 522.334290,391.484070 523.960266,397.002686 
	C525.225891,401.298431 525.917725,405.766083 526.810364,410.168304 
	C528.970703,420.822510 536.287903,426.924957 547.045227,427.004852 
	C548.211243,427.013519 549.380127,426.994781 550.542664,427.068115 
	C555.367126,427.372467 558.708008,429.830811 560.346130,434.326050 
	C561.965149,438.768829 559.690430,442.121277 556.630676,444.936615 
	C552.533997,448.706085 547.272217,449.855377 542.002197,450.787354 
	C531.493530,452.645752 524.031311,460.773193 523.010742,471.539246 
	C522.854919,473.182922 522.717163,474.865601 522.251282,476.435303 
	C521.068848,480.419281 518.487122,483.414856 514.282532,483.728027 
	C510.331757,484.022339 508.167816,481.008911 506.436157,477.749237 
	C504.693420,474.468719 503.598419,471.014282 502.938568,467.387482 
	C501.980316,462.120819 498.635742,458.045074 495.754700,453.834778 
	C494.018433,451.297424 490.759491,450.683044 487.724701,450.332367 
	C486.737366,450.218292 485.725372,450.337952 484.728882,450.279144 
	C478.686005,449.922546 474.489655,446.611633 472.861176,440.610107 
	C471.373138,435.126068 475.674744,432.541656 478.916656,429.635223 
	C481.776062,427.071686 485.716278,427.130188 489.225189,426.185272 
	C497.603394,423.929108 502.459991,417.924347 503.109772,409.384705 
	C503.385559,405.759979 504.208740,402.176910 504.945038,398.211609 
M523.238403,442.855103 
	C524.015442,440.721008 528.130371,439.047607 524.524292,436.304810 
	C521.243347,433.809387 518.425720,430.846771 515.159424,427.591187 
	C511.691742,431.399902 507.794678,434.352295 503.103638,437.906097 
	C509.707214,440.382599 510.808228,447.745056 516.908997,450.391449 
	C519.012573,447.918701 520.926514,445.668823 523.238403,442.855103 
z"/>
<path fill="#000000" opacity="1.000000" stroke="none" 
	d="
M287.371948,151.767700 
	C291.220917,150.930115 292.551117,148.617844 292.959717,145.261475 
	C293.379303,141.814667 294.059052,138.369644 294.978607,135.020950 
	C296.186554,130.622086 299.602600,128.334229 303.880615,128.270340 
	C308.132935,128.206818 311.671021,130.232437 312.927429,134.722717 
	C313.818329,137.906723 314.485199,141.162338 315.084839,144.416794 
	C315.937347,149.043777 318.084869,152.003387 323.286530,152.038193 
	C325.583588,152.053543 327.896484,152.625076 330.166718,153.109985 
	C334.666107,154.071030 337.592987,156.840607 338.557129,161.331406 
	C339.496399,165.706360 336.200806,167.607040 333.140869,169.289108 
	C329.803741,171.123550 326.472992,173.269318 322.661530,173.827850 
	C315.791351,174.834595 313.371429,179.514404 312.226135,185.479767 
	C311.882538,187.269440 311.771637,189.134201 311.192566,190.841980 
	C309.976196,194.429306 308.179047,198.072403 303.794861,197.776245 
	C299.441528,197.482162 296.723755,194.296707 295.329987,190.266205 
	C294.630341,188.242966 294.319305,186.070480 293.972778,183.942657 
	C292.746033,176.408798 292.027008,175.597504 284.456970,174.074570 
	C280.636963,173.306076 277.219360,171.964676 274.273804,169.202255 
	C271.069580,166.197281 270.402496,162.913467 271.535583,158.817795 
	C272.628571,154.867035 275.178894,153.291183 279.043732,152.657867 
	C281.685974,152.224915 284.310608,151.999542 287.371948,151.767700 
z"/>
<path fill="#000000" opacity="1.000000" stroke="none" 
	d="
M169.251465,437.448181 
	C170.161682,437.942841 170.959717,438.178406 171.230270,438.691895 
	C174.455002,444.812164 180.025238,448.891205 184.374588,454.022552 
	C187.216431,457.375397 185.624390,460.890747 183.003448,463.403748 
	C179.052750,467.191742 175.295425,471.143341 171.465149,475.038605 
	C167.001160,479.578308 162.043045,478.685150 158.586914,473.337799 
	C156.864441,470.672791 155.145813,468.131775 152.255280,466.451172 
	C144.906357,462.178284 144.960785,453.438049 152.576965,449.495361 
	C156.169342,447.635742 158.805008,445.624451 160.386627,441.745880 
	C161.800797,438.278015 164.795502,436.368317 169.251465,437.448181 
z"/>
<path fill="#000000" opacity="1.000000" stroke="none" 
	d="
M528.715820,338.634094 
	C529.417297,337.677338 529.949158,337.023651 530.325439,336.290192 
	C534.450684,328.249420 540.828064,327.754730 545.502380,335.427002 
	C547.807190,339.210083 550.916199,342.128540 553.864868,345.260498 
	C556.742004,348.316620 557.375671,351.251343 554.699463,354.986420 
	C550.883240,360.312775 545.926208,364.493622 541.395691,369.089264 
	C538.532288,371.993958 535.215820,371.450134 532.763611,368.303558 
	C529.106873,363.611389 525.658630,358.752930 522.221497,353.894623 
	C519.612305,350.206512 519.912048,346.839966 523.530396,343.828552 
	C525.311707,342.346069 526.834351,340.552765 528.715820,338.634094 
z"/>
<path fill="#000000" opacity="1.000000" stroke="none" 
	d="
M267.990509,231.042908 
	C271.783020,225.429169 277.622742,221.981186 280.114899,215.608215 
	C281.130585,213.010880 285.718536,213.883148 287.404388,217.168961 
	C289.391205,221.041321 292.495453,223.577957 295.751282,226.190750 
	C302.340698,231.478745 302.529175,236.011581 296.664337,242.017685 
	C294.226593,244.514114 291.797607,247.023209 289.268036,249.424835 
	C285.721527,252.791931 282.521393,252.717056 279.591797,248.829254 
	C276.938263,245.307816 273.823212,242.447769 270.103943,240.156403 
	C266.555298,237.970169 265.449585,235.102158 267.990509,231.042908 
z"/>
<path fill="#000000" opacity="1.000000" stroke="none" 
	d="
M517.741760,168.584137 
	C516.123108,167.653030 514.782349,166.954407 513.618652,166.032211 
	C503.822662,158.269150 503.472565,152.884445 512.233521,144.106598 
	C520.712585,135.611176 519.282349,133.651520 529.220032,145.104614 
	C537.302734,154.419891 537.166504,156.664047 525.860168,166.338791 
	C523.665771,168.216507 521.196350,169.588013 517.741760,168.584137 
z"/>
<path fill="#000000" opacity="1.000000" stroke="none" 
	d="
M356.714294,118.639145 
	C361.855103,113.821190 365.510895,113.825104 370.199921,118.601921 
	C371.698700,120.128738 372.995483,121.899788 374.152649,123.707596 
	C378.155609,129.961304 377.914398,131.802109 372.686554,137.060730 
	C372.217773,137.532333 371.745270,138.000229 371.275787,138.471115 
	C363.607025,146.163132 362.714081,146.199829 355.411804,139.122604 
	C348.646576,132.565887 348.435944,127.331200 354.678253,120.650787 
	C355.245270,120.043961 355.858276,119.480125 356.714294,118.639145 
z"/>
<path fill="#000000" opacity="1.000000" stroke="none" 
	d="
M453.212555,241.478210 
	C448.499969,243.789444 444.526459,243.016373 441.764130,239.172043 
	C438.689667,234.893341 435.345886,230.350372 438.335876,224.560455 
	C440.584900,220.205353 443.165009,215.266663 448.617584,215.581268 
	C453.608490,215.869217 456.930389,219.839035 459.087128,224.528900 
	C462.404297,231.742279 461.134247,235.902328 453.212555,241.478210 
z"/>
<path fill="#000000" opacity="1.000000" stroke="none" 
	d="
M348.653900,459.140472 
	C347.474792,465.172821 344.137360,469.174835 338.634918,470.777740 
	C334.628448,471.944916 329.809509,468.840851 327.284393,464.231079 
	C324.961487,459.990662 325.195251,455.825653 328.353210,452.170074 
	C335.117889,444.339539 344.451752,447.423370 348.653900,459.140472 
z"/>
</svg>